<svg width="15" height="20" viewBox="0 0 15 20" fill="none" xmlns="http://www.w3.org/2000/svg">
<path d="M14.464 0.114225C14.3025 0.029291 14.1208 -0.00974455 13.9387 0.00136287C13.7566 0.0124703 13.581 0.0732955 13.431 0.177225L0.430991 9.17723C0.29855 9.26966 0.190388 9.3927 0.115702 9.5359C0.0410156 9.6791 0.00201416 9.83822 0.00201416 9.99973C0.00201416 10.1612 0.0410156 10.3203 0.115702 10.4635C0.190388 10.6067 0.29855 10.7298 0.430991 10.8222L13.431 19.8222C13.581 19.926 13.7566 19.9868 13.9387 19.998C14.1208 20.0092 14.3025 19.9704 14.4641 19.8857C14.6257 19.801 14.761 19.6738 14.8555 19.5177C14.95 19.3616 14.9999 19.1827 15 19.0002V1.00023C15 0.817688 14.9501 0.638625 14.8556 0.482444C14.7611 0.326263 14.6257 0.198922 14.464 0.114225ZM13 17.0912L2.75699 10.0002L13 2.90922V17.0912Z" fill="#222222"/>
</svg>
