<svg width="97" height="38" viewBox="0 0 97 38" fill="none" xmlns="http://www.w3.org/2000/svg">
<path d="M0.82785 15.3561L3.33209 1.15851H5.29823L2.79399 15.3561H0.82785Z" fill="#222222"/>
<path d="M6.36619 15.3561L8.84973 1.15851H10.7538L15.8244 10.4718C15.9071 10.596 15.9968 10.7546 16.0934 10.9478C16.19 11.141 16.2866 11.341 16.3831 11.548C16.4935 11.755 16.5832 11.9343 16.6522 12.0861L16.7557 12.0654C16.7971 11.8309 16.8316 11.5756 16.8592 11.2996C16.9006 11.0237 16.9419 10.7615 16.9833 10.5132L18.6183 1.15851H20.5224L18.0388 15.3561H16.259L11.2091 6.14629C11.0987 5.93933 10.9469 5.64959 10.7538 5.27705C10.5606 4.89073 10.4019 4.56648 10.2778 4.30433H10.1536C10.126 4.55269 10.0846 4.84243 10.0294 5.17357C9.98802 5.50471 9.94663 5.79446 9.90524 6.04281L8.27024 15.3561H6.36619Z" fill="#222222"/>
<path d="M21.5847 15.3561L24.0889 1.15851H30.8359C31.6637 1.15851 32.3743 1.28269 32.9676 1.53104C33.5747 1.7656 34.0369 2.10364 34.3542 2.54516C34.6854 2.98668 34.851 3.53857 34.851 4.20085C34.851 4.78035 34.7268 5.33224 34.4784 5.85655C34.2301 6.36705 33.8851 6.80167 33.4436 7.16041C33.0159 7.50535 32.5123 7.7537 31.9328 7.90547L31.9121 7.98826C32.5192 8.18142 33.0228 8.51946 33.4229 9.00237C33.823 9.47149 34.0231 10.1131 34.0231 10.9271C34.0231 11.9205 33.8023 12.7484 33.3608 13.4107C32.9331 14.0591 32.3398 14.549 31.5809 14.8801C30.8359 15.1974 29.9873 15.3561 29.0353 15.3561H21.5847ZM23.8613 13.659H29.1181C29.7252 13.659 30.2426 13.5555 30.6703 13.3486C31.1118 13.1416 31.4499 12.8381 31.6844 12.4379C31.9328 12.024 32.057 11.5066 32.057 10.8857C32.057 10.2648 31.8638 9.78193 31.4775 9.43699C31.0911 9.09205 30.5323 8.91959 29.8011 8.91959H24.6891L23.8613 13.659ZM24.9996 7.24319H29.9666C30.3944 7.24319 30.7807 7.18111 31.1256 7.05693C31.4844 6.91895 31.781 6.73269 32.0156 6.49813C32.2639 6.24978 32.4502 5.97383 32.5744 5.67028C32.7123 5.35294 32.7813 5.0149 32.7813 4.65617C32.7813 4.04908 32.602 3.60066 32.2432 3.31092C31.8983 3.00737 31.4361 2.8556 30.8566 2.8556H25.7446L24.9996 7.24319Z" fill="#222222"/>
<path d="M42.5343 15.6045C41.2511 15.6045 40.1473 15.3975 39.2229 14.9836C38.2984 14.5559 37.5948 13.935 37.1118 13.1209C36.6289 12.2931 36.3875 11.2721 36.3875 10.0579C36.3875 9.69914 36.4013 9.35421 36.4289 9.02307C36.4565 8.67813 36.4979 8.34699 36.5531 8.02965C36.8014 6.58092 37.2843 5.32535 38.0018 4.26294C38.7193 3.20054 39.6437 2.37959 40.7751 1.80009C41.9203 1.2068 43.2517 0.910156 44.7694 0.910156C46.0664 0.910156 47.1702 1.12402 48.0808 1.55174C49.0053 1.96566 49.7089 2.58655 50.1918 3.4144C50.6886 4.22845 50.9369 5.24256 50.9369 6.45674C50.9369 6.78788 50.9231 7.11902 50.8955 7.45016C50.8817 7.78129 50.8403 8.11243 50.7713 8.44357C50.5368 9.89231 50.0539 11.1548 49.3226 12.231C48.6051 13.3072 47.6738 14.1419 46.5286 14.7352C45.3834 15.3147 44.052 15.6045 42.5343 15.6045ZM42.5963 13.9074C43.4794 13.9074 44.2658 13.7763 44.9557 13.5141C45.6594 13.252 46.2665 12.8795 46.777 12.3965C47.2875 11.8998 47.7014 11.3134 48.0187 10.6374C48.3499 9.9475 48.5844 9.18174 48.7224 8.34009C48.7638 8.16073 48.7914 7.98826 48.8052 7.82269C48.8328 7.65712 48.8535 7.50535 48.8673 7.36737C48.8811 7.2156 48.888 7.07073 48.888 6.93275C48.9018 6.79478 48.9087 6.6637 48.9087 6.53952C48.9087 5.64269 48.7431 4.90452 48.412 4.32503C48.0808 3.74554 47.5979 3.31781 46.9632 3.04186C46.3286 2.75212 45.5766 2.60724 44.7074 2.60724C43.8381 2.60724 43.0517 2.73832 42.348 3.00047C41.6581 3.24883 41.051 3.62136 40.5267 4.11807C40.0162 4.60098 39.5954 5.18737 39.2643 5.87724C38.9469 6.55332 38.7193 7.31218 38.5813 8.15383C38.5399 8.33319 38.5054 8.51256 38.4778 8.69193C38.464 8.8575 38.4502 9.01617 38.4364 9.16794C38.4364 9.30591 38.4295 9.44389 38.4157 9.58186C38.4157 9.70604 38.4157 9.83712 38.4157 9.97509C38.4157 10.8581 38.5813 11.5963 38.9124 12.1896C39.2436 12.7691 39.7196 13.2037 40.3405 13.4934C40.9751 13.7694 41.7271 13.9074 42.5963 13.9074Z" fill="#222222"/>
<path d="M58.3065 15.6045C56.6784 15.6045 55.4022 15.2664 54.4777 14.5903C53.5671 13.9005 53.1118 12.8243 53.1118 11.3617C53.1118 11.1548 53.1256 10.9133 53.1532 10.6374C53.1808 10.3614 53.2222 10.0855 53.2774 9.80952L54.8089 1.15851H56.775L55.2021 10.0579C55.1745 10.2096 55.1469 10.3959 55.1193 10.6167C55.0917 10.8374 55.0779 11.0237 55.0779 11.1755C55.0779 12.1137 55.3608 12.8036 55.9265 13.2451C56.4922 13.6866 57.2993 13.9074 58.3479 13.9074C59.5759 13.9074 60.59 13.5969 61.3903 12.976C62.1905 12.3552 62.6941 11.4238 62.9011 10.1821L64.5154 1.15851H66.4815L64.9086 9.97509C64.6741 11.2859 64.267 12.3621 63.6875 13.2037C63.1219 14.0315 62.3837 14.6386 61.4731 15.025C60.5762 15.4113 59.5207 15.6045 58.3065 15.6045Z" fill="#222222"/>
<path d="M67.5049 15.3561L69.9884 1.15851H71.8925L76.963 10.4718C77.0458 10.596 77.1355 10.7546 77.2321 10.9478C77.3287 11.141 77.4252 11.341 77.5218 11.548C77.6322 11.755 77.7219 11.9343 77.7909 12.0861L77.8944 12.0654C77.9357 11.8309 77.9702 11.5756 77.9978 11.2996C78.0392 11.0237 78.0806 10.7615 78.122 10.5132L79.757 1.15851H81.6611L79.1775 15.3561H77.3977L72.3478 6.14629C72.2374 5.93933 72.0856 5.64959 71.8925 5.27705C71.6993 4.89073 71.5406 4.56648 71.4164 4.30433H71.2923C71.2647 4.55269 71.2233 4.84243 71.1681 5.17357C71.1267 5.50471 71.0853 5.79446 71.0439 6.04281L69.4089 15.3561H67.5049Z" fill="#222222"/>
<path d="M82.7234 15.3561L85.2276 1.15851H90.3396C92.2988 1.15851 93.8096 1.60003 94.872 2.48307C95.9482 3.35231 96.4863 4.72516 96.4863 6.60161C96.4863 6.97414 96.4725 7.33978 96.4449 7.69851C96.4174 8.05724 96.376 8.40908 96.3208 8.75402C96.0724 10.1614 95.5895 11.3548 94.872 12.3345C94.1546 13.3141 93.2439 14.066 92.1401 14.5903C91.0363 15.1009 89.7601 15.3561 88.3113 15.3561H82.7234ZM84.9999 13.659H88.2079C89.0771 13.659 89.8567 13.5417 90.5465 13.3072C91.2502 13.0726 91.8573 12.7415 92.3678 12.3138C92.8783 11.8722 93.2922 11.3272 93.6096 10.6788C93.9269 10.0303 94.1546 9.29902 94.2925 8.48497C94.3339 8.25041 94.3615 8.02965 94.3753 7.82269C94.4029 7.61573 94.4167 7.42256 94.4167 7.24319C94.4305 7.05003 94.4374 6.87066 94.4374 6.70509C94.4374 5.78066 94.2718 5.0356 93.9407 4.4699C93.6096 3.90421 93.1267 3.49718 92.492 3.24883C91.8573 2.98668 91.0915 2.8556 90.1947 2.8556H86.904L84.9999 13.659Z" fill="#222222"/>
<path d="M1.55222 33.8309V19.6126H4.84291L10.017 26.2147C10.1135 26.3251 10.2377 26.4838 10.3895 26.6907C10.5551 26.8977 10.7137 27.1115 10.8655 27.3323C11.0173 27.5393 11.1277 27.7048 11.1966 27.829L11.3001 27.8083C11.3001 27.5048 11.3001 27.215 11.3001 26.9391C11.3001 26.6493 11.3001 26.4079 11.3001 26.2147V19.6126H14.7357V33.8309H11.4657L5.9812 26.877C5.80184 26.6562 5.62937 26.4286 5.4638 26.194C5.31203 25.9594 5.18785 25.7663 5.09127 25.6145L4.98779 25.6352C4.98779 25.856 4.98779 26.0836 4.98779 26.3182C4.98779 26.5389 4.98779 26.7252 4.98779 26.877V33.8309H1.55222Z" fill="#222222"/>
<path d="M18.6081 33.8309V19.6126H30.3429V22.5101H22.3128V25.1799H29.3288V28.0153H22.3128V30.9334H30.4878V33.8309H18.6081Z" fill="#222222"/>
<path d="M35.9354 33.8309L32.355 19.6126H36.2458L37.9843 27.0839C38.0119 27.2081 38.0464 27.3875 38.0878 27.622C38.1292 27.8566 38.1706 28.105 38.212 28.3671C38.2672 28.6293 38.3155 28.8707 38.3568 29.0915H38.4396C38.4672 28.9535 38.4948 28.7948 38.5224 28.6155C38.55 28.4223 38.5776 28.236 38.6052 28.0567C38.6466 27.8635 38.6811 27.6841 38.7087 27.5186C38.7501 27.353 38.7777 27.2081 38.7915 27.0839L40.4265 19.6126H44.4622L46.1386 27.0839C46.18 27.2219 46.2214 27.4082 46.2628 27.6427C46.3042 27.8773 46.3456 28.1257 46.387 28.3878C46.4422 28.65 46.4905 28.8845 46.5319 29.0915H46.6146C46.6422 28.9397 46.6698 28.781 46.6974 28.6155C46.7388 28.4361 46.7733 28.2567 46.8009 28.0774C46.8423 27.8842 46.8768 27.7048 46.9044 27.5393C46.9458 27.3737 46.9803 27.2219 47.0079 27.0839L48.6843 19.6126H52.3268L48.7463 33.8309H44.6071L42.7858 25.9663C42.7582 25.7732 42.7169 25.5524 42.6617 25.3041C42.6065 25.0557 42.5513 24.8074 42.4961 24.559C42.4547 24.3107 42.4202 24.0899 42.3926 23.8967H42.3098C42.2822 24.0899 42.2477 24.3107 42.2063 24.559C42.165 24.8074 42.1167 25.0557 42.0615 25.3041C42.0201 25.5524 41.9787 25.7732 41.9373 25.9663L40.1367 33.8309H35.9354Z" fill="#222222"/>
<path d="M60.6366 34.0793C59.7398 34.0793 58.8982 33.9965 58.1117 33.8309C57.3252 33.6791 56.6285 33.4239 56.0214 33.0651C55.4281 32.7064 54.959 32.2373 54.614 31.6578C54.2691 31.0645 54.0966 30.3401 54.0966 29.4847C54.0966 29.4295 54.0966 29.3674 54.0966 29.2984C54.0966 29.2294 54.1035 29.1743 54.1173 29.1329H57.6978C57.6978 29.1743 57.6909 29.2294 57.6771 29.2984C57.6771 29.3536 57.6771 29.4019 57.6771 29.4433C57.6771 29.8848 57.7875 30.2436 58.0082 30.5195C58.2428 30.7817 58.567 30.9748 58.9809 31.099C59.3949 31.2094 59.8778 31.2646 60.4297 31.2646C60.7332 31.2646 61.0161 31.2508 61.2782 31.2232C61.5404 31.1956 61.7749 31.1473 61.9819 31.0783C62.1889 31.0093 62.3682 30.9265 62.52 30.83C62.6856 30.7196 62.8028 30.5954 62.8718 30.4574C62.9546 30.3057 62.996 30.1332 62.996 29.94C62.996 29.6227 62.8718 29.3605 62.6235 29.1536C62.3889 28.9466 62.0647 28.7741 61.6508 28.6362C61.2506 28.4982 60.7953 28.3671 60.2848 28.2429C59.7743 28.1188 59.2431 27.9877 58.6912 27.8497C58.1393 27.7117 57.6081 27.5393 57.0976 27.3323C56.5871 27.1253 56.1249 26.8632 55.7109 26.5458C55.3108 26.2285 54.9866 25.8353 54.7382 25.3662C54.5037 24.8832 54.3864 24.3038 54.3864 23.6277C54.3864 22.8826 54.5451 22.241 54.8624 21.7029C55.1797 21.151 55.6144 20.7026 56.1663 20.3577C56.732 20.0127 57.3804 19.7644 58.1117 19.6126C58.843 19.447 59.6225 19.3643 60.4504 19.3643C61.2644 19.3643 62.0233 19.447 62.727 19.6126C63.4444 19.7782 64.0791 20.0403 64.631 20.3991C65.1829 20.744 65.6106 21.1855 65.9142 21.7236C66.2315 22.2479 66.3971 22.8826 66.4109 23.6277V23.876H62.8511V23.7312C62.8511 23.4138 62.7614 23.1379 62.5821 22.9033C62.4165 22.655 62.1613 22.4618 61.8163 22.3238C61.4714 22.172 61.0437 22.0962 60.5332 22.0962C60.0227 22.0962 59.588 22.1444 59.2293 22.241C58.8844 22.3376 58.6153 22.4756 58.4221 22.655C58.2428 22.8343 58.1531 23.0482 58.1531 23.2965C58.1531 23.6001 58.2704 23.8484 58.5049 24.0416C58.7533 24.2348 59.0844 24.4003 59.4983 24.5383C59.9123 24.6763 60.3745 24.8074 60.885 24.9315C61.3955 25.0419 61.9198 25.1661 62.4579 25.3041C63.0098 25.4282 63.541 25.5938 64.0515 25.8008C64.562 25.9939 65.0242 26.2492 65.4382 26.5665C65.8521 26.8701 66.1763 27.2495 66.4109 27.7048C66.6592 28.1601 66.7834 28.712 66.7834 29.3605C66.7834 30.4919 66.5144 31.4025 65.9763 32.0924C65.452 32.7823 64.7207 33.2859 63.7825 33.6032C62.858 33.9206 61.8094 34.0793 60.6366 34.0793Z" fill="#222222"/>
<path d="M88.6667 31.2918C88.6667 31.546 88.5657 31.7898 88.386 31.9695C88.2062 32.1492 87.9625 32.2502 87.7083 32.2502C87.4542 32.2502 87.2104 32.1492 87.0307 31.9695C86.851 31.7898 86.75 31.546 86.75 31.2918V19.7918C86.75 19.5377 86.649 19.2939 86.4693 19.1142C86.2896 18.9345 86.0458 18.8335 85.7917 18.8335H72.375C72.1208 18.8335 71.8771 18.9345 71.6973 19.1142C71.5176 19.2939 71.4167 19.5377 71.4167 19.7918V32.2502C71.4167 32.7585 71.6186 33.246 71.978 33.6054C72.3375 33.9649 72.825 34.1668 73.3333 34.1668H87.7083C89.2934 34.1668 90.5833 32.8769 90.5833 31.2918V21.7085H88.6667V31.2918ZM81 21.7085H83.875V23.6252H81V21.7085ZM81 25.5418H83.875V27.4585H81V25.5418ZM74.2917 21.7085H79.0833V27.4585H74.2917V21.7085ZM74.2917 31.2918V29.3752H83.875V31.2918H74.2917Z" fill="#222222"/>
</svg>
