<svg width="20" height="17" viewBox="0 0 20 17" fill="none" xmlns="http://www.w3.org/2000/svg">
<path d="M9.00001 4.05V1C9.00001 0.734784 8.89465 0.48043 8.70712 0.292893C8.51958 0.105357 8.26523 0 8.00001 0C7.73767 0.00110462 7.48627 0.105256 7.30001 0.29L0.30001 7.29C0.206281 7.38296 0.131887 7.49356 0.0811183 7.61542C0.0303497 7.73728 0.00421143 7.86799 0.00421143 8C0.00421143 8.13201 0.0303497 8.26272 0.0811183 8.38458C0.131887 8.50644 0.206281 8.61704 0.30001 8.71L7.30001 15.71C7.44039 15.8476 7.61822 15.9408 7.81127 15.9779C8.00431 16.015 8.20401 15.9944 8.3854 15.9186C8.5668 15.8429 8.72184 15.7153 8.83115 15.5519C8.94046 15.3886 8.9992 15.1966 9.00001 15V11.9H9.85001C11.4299 11.8764 12.9961 12.197 14.4397 12.8393C15.8833 13.4817 17.1698 14.4306 18.21 15.62C18.3354 15.7869 18.5098 15.9104 18.7088 15.9731C18.9079 16.0359 19.1216 16.0348 19.32 15.97C19.5219 15.9019 19.6968 15.771 19.8191 15.5965C19.9414 15.422 20.0048 15.213 20 15C20 5.88 11.92 4.32 9.00001 4.05ZM9.85001 9.88C9.18117 9.87791 8.51295 9.92134 7.85001 10.01C7.61327 10.0459 7.39728 10.1656 7.24129 10.3473C7.08531 10.5289 6.99969 10.7606 7.00001 11V12.59L2.42001 8L7.00001 3.41V5C7.00001 5.26522 7.10537 5.51957 7.2929 5.70711C7.48044 5.89464 7.73479 6 8.00001 6C8.91001 6 16.11 6.2 17.67 12.43C15.4057 10.7606 12.6632 9.86626 9.85001 9.88Z" fill="#222222"/>
</svg>
